# xmcd
#
# Track frame offsets:
#	150
#	13906
#	30587
#	48395
#	63562
#	78413
#	94444
#	106313
#	121041
#	136680
#	156527
#	171380
#	192111
#	208473
#	220760
#	238029
#	250486
#	267916
#	285355
#	301468
#	323915
#	338941
#
# Disc length: 4693 seconds
#
# Revision: 1
# Processed by: cddbd v1.5.2PL0 Copyright (c) Steve Scherf et al.
# Submitted via: audiograbber 1.83.01
#
DISCID=4a125316
DTITLE=Various Artist - Now That`s What I Call Country 2017 CD1
DYEAR=2017
DGENRE=Country
TTITLE0=Dolly Parton - 9 To 5
TTITLE1=Shania Twain - That Don't Impress Me Much
TTITLE2=Lady Antebellum - Need You Now
TTITLE3=Carrie Underwood - Before He Cheats
TTITLE4=Glen Campbell - Rhinestone Cowboy
TTITLE5=Kenny Rogers - The Gambler
TTITLE6=Johnny Cash - Ring Of Fire
TTITLE7=John Denver - Take Me Home, Country Roads
TTITLE8=Billy Ray Cyrus - Achy Breaky Heart
TTITLE9=The Mavericks - Dance The Night Away
TTITLE10=The Bellamy Brothers - Let Your Love Flow
TTITLE11=Sheryl Crow - All I Wanna Do
TTITLE12=The Charlie Daniels Band - The Devil Went Down To Georgia
TTITLE13=Tammy Wynette - Stand By Your Man
TTITLE14=Rascal Flatts - Bless The Broken Road
TTITLE15=Sam Hunt - Body Like A Back Road
TTITLE16=Hunter hayes - Wanted
TTITLE17=Ward Thomas - Cartwheels
TTITLE18=Josh Turner - Your Man
TTITLE19=Tim McGraw - Live Like You Were Dying
TTITLE20=Maren Morris - My Church
TTITLE21=Dr. Hook - When You're In Love With A Beautiful Woman
EXTD=
EXTT0=
EXTT1=
EXTT2=
EXTT3=
EXTT4=
EXTT5=
EXTT6=
EXTT7=
EXTT8=
EXTT9=
EXTT10=
EXTT11=
EXTT12=
EXTT13=
EXTT14=
EXTT15=
EXTT16=
EXTT17=
EXTT18=
EXTT19=
EXTT20=
EXTT21=
PLAYORDER=
